<?xml version="1.0" encoding="UTF-8"?>
<svg id="Layer_1" xmlns="http://www.w3.org/2000/svg" version="1.1" viewBox="0 0 1083 1125">
  <!-- Generator: Adobe Illustrator 29.7.1, SVG Export Plug-In . SVG Version: 2.1.1 Build 8)  -->
  <defs>
    <style>
      /* Use currentColor so the SVG can be recolored from the embedding page via CSS techniques */
      .st0 {
        fill: currentColor;
      }
    </style>
  </defs>
  <path class="st0" d="M673.32,161.67c18.24,167.05,141,305.03,304.68,342.61,13.2,3.03,27.93,4.12,40.6,7.33,1.57.4,2.4-1.01,2,1.96-31.05,74.1-79.05,139.66-131.07,200.24-.38-10.33,4.01-21.31,5.66-31.6,3.95-24.7,7.22-60.08,5.71-84.87-.21-3.41-1.52-16.57-2.82-18.47-1.21-1.76-3.18-2.39-5.13-2.86-14.65-3.52-14.18,9.99-18.9,19.86-27.42,57.3-79.16,80.88-125.51,119.31-49.99,41.45-83.2,94.31-93.42,159.38-3.13,19.94-5.5,43.29-.42,62.77-31.84,7.56-64.18,14.96-97.12,14.64,4.63-17.57,5.29-32.7.4-50.29-1.26-4.53-9.71-22.03-9.66-23.56.07-1.94,8.18-14.61,10.18-15.13,3.41-.89,14.37,9.11,18.63,11.56,16.02,9.2,34.12,11.63,49.52-.52,20.79-16.4,13-47-9.78-56.51-21.61-9.02-42.54,1.5-58.64,15.81l-31.32-33.61c-1.3-1.44-1.73-3.35-1.13-5.18.41-1.26,21.4-13.07,23.08-12.92,20.53,17.55,46.44,36.25,73.76,20.54,29.81-17.13,21.15-57.82-12.81-62.73-21.57-3.12-37.3,9.08-56.12,15.56-4.81-8.25-13.94-38.81-8.22-45.94.72-.9,16.57-5.09,20.07-6.54s11.42-7.12,13.96-7.17c3.43-.07,14.15,6.23,19.05,7.47,9.17,2.31,21.19,4.74,30.64,6.62,93.18,18.54,162.49-57.35,200.51-132.6,3.74-7.4,23.71-42.6,4.06-41.26-4.42.3-28.24,15.31-35.05,18.25-3.19,1.38-24.48,9.37-25.58,8.33l14.38-61.51c-8.88-23.82-26.68,11.6-42.32,9.62,1.83-19.87,9.48-42.23,10.68-61.81.54-8.81-.48-18.07-11.6-15.68-11.52,8.03-23.07,16.27-35.11,23.5-4.93,2.96-44.52,25.38-46.45,23.39-.39-9.03.52-18.23-.02-27.26-.91-15.28-2.26-34.01-4.13-49.09-1.06-8.54-8.68-17.68-16.44-10.09-2.65,2.59-10.48,20.21-14.24,25.67-2.95,4.28-24.86,30.53-29.02,27.51l-49.9-135.72c-.3-4.05-7.07-6.27-8.06-7.93-1.81-3.02,21.02-43.76,24.94-49.68,21.89-33.15,59.44-67.77,94.65-86.3,2.04-1.07,11.58-6.42,12.86-5.09Z"/>
  <path class="st0" d="M480.87,214.42c14.64,14.74,27.78,30.44,38.68,48.47,3.25,5.38,19.93,36.65,19.45,40.44-.07.59-8.8,2.85-8.71,7.35l-49.9,137.05c-15.31-10.4-25.96-23.96-35.65-39.51-3.95-6.33-6.58-20.41-16.59-17.48-9.08,2.66-6.87,19.9-7.62,27.04-2.17,20.6-5.17,41.06-3.99,61.87-2.37,2.66-54.61-28.57-60.28-32.17-7.36-4.67-26.15-23.72-32.16-10.38-4.75,10.55,12.58,70.54,9.95,73.15-3.9-.08-7.94-2.18-11.34-3.95-9.67-5.04-24.86-24.77-30.99-5.67l14.38,61.51c-21.33-4.56-40.41-16.3-59.54-26.38-18.17.7-7.08,19.5-2.6,29.33,35.99,79.1,109.52,164.08,206.34,144.57,9.97-2.01,24.94-5.21,34.38-8.19,4.16-1.32,11.74-6.21,15.05-6.14,3.52.07,20.63,11.48,26.63,11.79,1.1,11.07.04,21.24,2.31,32.29,1.06,5.18,10.19,25.26,8.78,27.48-.81,1.27-23.46,11.64-26.93,13.26-11.55-9.67-24.33-21.24-40.12-22.38-22.82-1.66-44.93,16.87-35.51,40.82,7.45,18.93,28.23,21.71,46.02,17.55,6.99-1.64,22.69-12.02,27.39-9.85l35.8,38.82c4.28,2.59-7.62,17.48-8.65,17.68-18.46-14.52-43.14-25.11-65.55-12.43-23.86,13.5-23.17,46,.24,59.33,16.71,9.52,36.43,5.58,51.93-4.5,2.39-1.55,12.65-11.51,14.19-10.4,7.01,18.07,10.85,39.76.45,57.26-35.94.63-71.15-7.69-105.41-17.47,5.1-78.58-23.76-153.51-81.27-206.78-42.75-39.6-105.84-68.24-134.63-120.83-2.79-5.1-11.88-28.29-14.4-29.5-3.7-1.79-12.57-.72-14.71,2.93-1.13,1.93-2.48,18.51-2.65,22.3-1.58,35.16,4.4,77.53,13.75,111.43,1.12,4.07,3.74,8.78,4.8,12.51.7,2.47-.63,1.98-2.5,1.81-42.98-51.17-85.37-103.62-117.34-162.73-3.31-6.11-16.38-29.89-17.08-34.83-.42-2.9.4-1.65,2.01-1.96,179.44-34.53,308.4-174.52,326.63-357.29.32-3.23-1.29-14.63,2.05-15.29,1.76-.35,28.38,13.48,32.16,15.7,19.58,11.53,36.94,26.45,52.76,42.37Z"/>
  <path class="st0" d="M538.96,339.96c2.02.32,2.92,4.52,3.65,6.31,9.6,23.63,18.68,49.47,27.57,73.55,24.75,67.07,63.96,158.28,27.54,227.04-35.06,66.2-99.2,50.08-122.25-15.25-21.24-60.22,1.15-122.91,21.6-179.86,13.43-37.4,29.6-73.95,41.89-111.79ZM537.24,493.23c-10.06,2.26-8.3,20.75,4.71,18.12,11.11-2.24,8.76-21.15-4.71-18.12ZM546.61,559.8c-1.73-1.74-10.72-2.47-12.71-1.35-4.16,2.36-6.44,17.11,5.71,17.1,9.79,0,11.55-11.19,7-15.76ZM537.26,620.92c-8.24,1.71-8.67,15.95-1.37,18.11,16.43,4.85,17.07-21.37,1.37-18.11Z"/>
  <path class="st0" d="M259.35,139.24c10.68,46.04,70.87,49.53,78.69-.2l35.85,8.05c1.09,13.42-1.83,26.53-2.6,39.86-87.66,9.34-163.67,60.05-209.45,134.49-31.27,50.84-47.94,114.66-88.53,158.91-2.83,3.09-17.54,18.61-20.6,17.91-3.91-6.73-6.21-15.92-8.35-23.63-1.69-6.08-6.95-23.6-5.43-28.62.63-2.09,23.81-22.71,27.71-26.85,51.19-54.45,81.59-124.89,55.55-199.32-1.1-3.13-3.73-5.57-4.5-8.87-2.28-9.68,16.67-17.88,22.2-24.57l29.16-18.06c-5.92,30.13,24.88,64.19,53.89,42.57,20.84-15.54,15.04-46.4.7-64.53.14-2.25,32.92-8.9,35.71-7.12Z"/>
  <path class="st0" d="M898.19,163c1.64-1.67,27.52,13.89,31.01,16.21,3.2,2.13,20.08,14.44,20.68,16.68-3.18,14.43-8.24,27.18-9.18,42.21-4.41,70.35,30.65,124.39,79.88,170.39,3.25,3.04,21.62,16.97,22.34,18.22,3.67,6.33-8.76,45.11-10.37,54.27-1.75,1.27-14.28-9.78-16.64-11.91-47.75-43.09-68.02-110.04-104.13-162.01-49.38-71.07-127.81-116.08-214.66-122.21-.88-1.28-5.15-27.86-5.11-30.63.02-1.16.13-1.96,1.26-2.54l35.12-10.07c5.51,11.96,13.77,23.98,27.11,27.7,16.21,4.52,34.87-4.27,43.45-18.39,2.66-4.39,3.68-14.74,9.23-14.47,3.4.17,28.67,3.98,29.56,5.19,1.53,2.05-5.54,15.72-6.09,20.69-6.85,61.18,70.95,56.75,66.54.68Z"/>
  <path class="st0" d="M367.3,208.24l-9.58,40.95c-24.32,3.11-45.68,10.18-66.14,23.69-78.15,51.62-90.99,153.8-158.43,211.45-16.75,14.32-34.82,17.34-55.9,21.92,54.77-52.89,70.47-131.45,113.34-192,40.32-56.95,107.2-97.46,176.7-106.01Z"/>
  <path class="st0" d="M987.83,469.84c5.46,6.21,11.71,11.93,18.11,17.14.24,2.18.19,2.19-1.92,1.94-8.6-1.04-30.1-5.65-38.01-8.58-40.48-14.99-83.7-96.99-107.2-132.29-33.67-50.55-78.49-99.22-144.02-100.13-2.18-5.59-14.31-39.34-12.18-42.35,63.61,7.09,126.5,36.22,169.64,83.8,48.38,53.36,68.02,126.32,115.58,180.47Z"/>
  <path class="st0" d="M734.52,462.36c-9.85,51.19-13.35,107.37-33.96,155.62-18.03,42.19-55.66,83.24-105.73,63.89,42.18-45.17,40.64-109.36,28-166.23,21.55-6.2,41.72-15.87,62.04-25.11l49.65-28.17ZM671.77,580.54c4.04-2.47,5.09-17.18-5.75-17.19-12.6-.02-11.43,15.88-2.6,17.3,1.84.3,7.1.66,8.36-.1Z"/>
  <path class="st0" d="M456.33,515.69c-9.69,49.5-14.63,100.18,12.36,145.32,2.29,3.83,14.14,18.53,14.41,20.19.46,2.83-.59,1.64-1.9,2.14-41.3,15.99-77.91-18.43-95.96-51.99-20.87-38.82-36.61-123.62-40.58-168.33-.07-.82-.35-2.19.69-2,33.75,23.82,71.72,41.78,110.98,54.66ZM403.79,566.63c-6.07,12.27,8.34,20.42,14.71,11.45,8.84-12.46-10.43-20.11-14.71-11.45Z"/>
  <path class="st0" d="M882.21,622.03c-2.27,12.25-.06,27.11-2.95,38.95-1.76,7.2-11.36,21.51-15.92,27.99-49.33,70.19-155,106.12-158.01,206.22l-34.66,28.86c-2.54-58.31,17.87-119.83,56.51-163.67,38.22-43.35,94.67-69.03,133.09-111.72,7.08-7.87,12.53-16.84,18.89-24.95.85-1.08-.03-2.45,3.04-1.68Z"/>
  <path class="st0" d="M225.41,650.82c30.32,32.51,71.29,54.55,104.66,83.6,47.32,41.19,76.63,95.23,82.46,158.36.47,5.08,2.39,31.76,0,33.91-2.71-.01-5.19-2.45-7.28-4.02-3.72-2.8-24.37-19.79-25.88-22.11-1.18-1.81-2.33-22.93-3.41-28.43-17.24-87.5-113.04-120.43-157.98-187.95-3.82-5.74-10.9-16.96-12.65-23.27-3.14-11.27-2.46-27.15-2.99-38.9l23.07,28.8Z"/>
  <path class="st0" d="M348.67,270.77c-13.66,41.42-38.65,82.66-67.16,115.77-23.11,26.83-68.07,65.95-100.03,80.91-1.93.9-3.36,2.04-5.76,1.55l27.67-42.16c34.55-61.98,67.56-140.83,145.28-156.07Z"/>
  <path class="st0" d="M801.92,308.49c29.48,28.62,48.82,67.15,70.95,101.35l34.61,48.54c-60.15-27.64-112.11-72.06-149.56-126.51-4.57-6.65-37.62-60.11-34.03-63.74,29.65,3.37,56.95,19.91,78.03,40.37Z"/>
  <path class="st0" d="M813.02,567.47c1.44,1.45-16.52,31.37-18.87,35-29.7,46.03-74.93,89.12-132.8,91.37l17.31-12.61c25.9-24.28,40.9-57.24,50.77-90.93,29.07-2.94,56.7-12.05,83.58-22.84ZM736.17,635.01c8.63,8.64,22.74-7.09,12.42-14.41-10.68-7.58-19.03,7.81-12.42,14.41Z"/>
  <path class="st0" d="M417.86,692.55c.36,2.22-3.25,1.46-4.69,1.37-66.51-4.18-121.36-70.11-146.97-126.44,14.64,5.08,28.84,11.31,43.9,15.29,13.2,3.49,26.56,5.33,39.93,7.97,11.92,39.04,30.33,81.45,67.83,101.81ZM334.96,619.62c-6.01,1.85-6.38,15.52,1.11,17,17.94,3.56,15.85-22.21-1.11-17Z"/>
  <path class="st0" d="M110.52,256.13v37.92c0,33.87-40.18,93.87-64.33,117.28-1.06,1.03-11.96,10.81-12.83,9.77-.18-22.37-.63-44.7,3.02-66.82.71-4.3,3.12-18.58,4.88-21.39.84-1.34,21.49-15.43,25.37-18.87,13-11.51,26.38-27.16,34.8-42.37,2.42-4.38,3.78-10.12,6.09-13.82.87-1.39-.08-2.31,3-1.7ZM53,344.17c-13.62,1.74-12.74,23.39,4.68,19.43,11.56-2.63,8.78-21.15-4.68-19.43Z"/>
  <path class="st0" d="M220.93,715.16c.17.14.6,2.61,1.94,4.01,5.99,6.26,12.38,12.73,18.69,18.66,44.75,42.11,109.06,78.13,117.77,144.96-2.31.6-2.66-.96-3.99-1.98-17.69-13.54-39.17-34.91-55.89-50.55-30.78-28.79-76.06-67.38-81.02-111.92-.22-1.98.05-5.29,2.52-3.18Z"/>
  <path class="st0" d="M963.35,240.17c.67.57,5.42,12.7,7.44,15.86,10.8,16.88,24.79,31.08,40.59,43.24,5.6,4.31,18.4,10.35,21.46,15.79s5.61,18.38,7.05,24.88c4.56,20.56,6.86,41.44,5.96,62.55-.86,1.16-20.27-16.99-21.93-18.63-32.93-32.6-60.73-78.19-63.26-125.67-.24-4.46-.48-11.81.05-16.05.24-1.92.63-3.68,2.65-1.97ZM1029.51,328.38c-6.16-4.97-16.95-1.6-17.95,7.22-1.58,13.96,24.44,15.23,20.66-2.62-.18-.86-2.04-4.06-2.71-4.6Z"/>
  <path class="st0" d="M618.77,963.96c1.35,1.25-7.46,8.02-9,9.25-16.97,13.61-35.29,27.23-53.11,39.72-2.95,2.07-14.7,10.8-17.05,10.8l-85.82-63.76c54.03,12.28,110.4,14.42,164.97,3.98Z"/>
  <path class="st0" d="M820.54,789.2c-23.22,23.56-48.01,47.01-72.69,69.01-2.28,2.03-19.71,18.13-21.3,16.6,13.41-60.78,69.4-93.38,111.78-132.36,10.02-9.22,18.6-20.22,28.36-29.5,1.35-1.29,4.08-3.06,3.56.2-5.6,35.29-26.11,52.11-49.7,76.05Z"/>
  <path class="st0" d="M642.72,431.76l2.41,54.95c-1.14,3.79-21.93,10.15-26.85,11.47-2.31-.69-11.04-29.01-11.34-33.6,7.18-5.68,14.83-10.93,21.24-17.46,2.04-2.08,12.76-17.36,14.54-15.36Z"/>
  <path class="st0" d="M441.03,435.19c4.01,3.79,6.5,8.42,10.05,11.93,6.04,5.99,14.78,11.97,21.4,17.52-1.11,11.58-8.28,21.86-9.37,33.66-1.24,1.11-26.67-8.07-27.9-10.36-6.09-11.37,3.54-42.58,1.3-56.16,2.98-.66,3.01,1.99,4.53,3.42Z"/>
  <path class="st0" d="M486.73,863.19c9.34-1.39,21.35,2.27,29.19,7.37,12.27,7.98,6.16,13.1-3.67,19.47-5.78,3.75-14.87,7.55-21.8,7.44-25.1-.41-27.05-30.8-3.72-34.27Z"/>
  <path class="st0" d="M576.69,781.17c-.96-.63-9.22-7.17-9.53-7.69-.47-.8-.55-3.01-.13-3.64.99-1.48,22.94-11.29,26.13-11.79,12.29-1.93,32.61.52,29.34,17.32-1.23,6.3-9.26,12.75-15.32,13.99-10.43,2.15-21.9-2.55-30.48-8.19Z"/>
  <path class="st0" d="M573.94,850.47c-6.39-7.7,15.51-17.6,21.54-18.23,31.15-3.23,33.62,36.32,2.99,31.61-5.92-.91-20.81-8.9-24.53-13.38Z"/>
  <path class="st0" d="M201.94,152.56c4.11-.19,13.19,18.4,13.69,23.07,3.64,33.53-30.65,25.25-26.26-4.97.94-6.46,4.86-17.75,12.57-18.1Z"/>
  <path class="st0" d="M860.47,147.16c1.64-.48,12.23,3.24,13.73,4.56,8.45,7.46,4.39,33.51-8.73,35.2-21.39,2.76-13.56-37.23-4.99-39.76Z"/>
  <path class="st0" d="M337.74,530.51c1.49,1.45,5.99,35.68,6.95,40.95-.85.85-16.49-1.99-17.94-4.01-2.19-14.64-9.72-29.28-9.34-43.88,3.11,3.97,18.52,5.16,20.34,6.94Z"/>
  <path class="st0" d="M734.53,571.46l6.75-41.14,21.86-6.73-10.65,43.89c-1.18,1.54-17.08,4.86-17.97,3.97Z"/>
  <path class="st0" d="M460.1,776.68c10.22-2.61,22.53,2.13,29.65,9.61,4.08,4.28,3.67,5.51-1.36,8.04-10.03,5.04-27.43,10-35.71-.22-5.74-7.09.16-15.57,7.43-17.43Z"/>
  <path class="st0" d="M93.22,232.19c-3.01,26.71-19.92,49.67-39.89,66.52,7.34-22.32,21.06-45.07,35.61-63.5,1.26-1.59,1.52-3.63,4.28-3.02Z"/>
  <path class="st0" d="M318.08,136.39c-3.17,26.15-32.5,23.54-38.58,0h38.58Z"/>
  <path class="st0" d="M980.64,222.88c.17.15.34,2.26,1.32,3.29,5.08,5.34,9.4,11.22,14.63,16.34l20,33.58c-1.8,1.76-16.04-12.94-17.22-14.35-8.1-9.76-16.18-21.21-18.97-32.58-.17-.69-4.81-10.59.25-6.27Z"/>
  <path class="st0" d="M777.98,145.24c-9.69,8.37-25.64,5.66-28.82-7.52l32.47-2.61c4.61,1.17-1.71,8.44-3.66,10.12Z"/>
</svg>