<?xml version="1.0" encoding="UTF-8"?>
<svg id="Layer_1" xmlns="http://www.w3.org/2000/svg" version="1.1" viewBox="0 0 1083 1125">
  <!-- Generator: Adobe Illustrator 29.7.1, SVG Export Plug-In . SVG Version: 2.1.1 Build 8)  -->
  <defs>
    <style>
      .st0 {
        fill: #e197f6;
      }
    </style>
  </defs>
  <path class="st0" d="M656.99,248c13.71,125.55,105.98,229.26,228.99,257.51,9.92,2.28,20.99,3.09,30.51,5.51,1.18.3,1.81-.76,1.5,1.47-23.34,55.69-59.41,104.97-98.51,150.5-.29-7.77,3.02-16.02,4.25-23.75,2.97-18.56,5.43-45.16,4.29-63.79-.16-2.57-1.14-12.45-2.12-13.88-.91-1.32-2.39-1.8-3.86-2.15-11.01-2.65-10.66,7.51-14.21,14.93-20.61,43.07-59.49,60.79-94.33,89.67-37.57,31.16-62.54,70.88-70.21,119.79-2.35,14.99-4.14,32.54-.31,47.18-23.93,5.68-48.24,11.24-73,11,3.48-13.21,3.98-24.58.3-37.8-.95-3.4-7.3-16.56-7.26-17.71.05-1.46,6.15-10.98,7.65-11.37,2.56-.67,10.8,6.85,14,8.69,12.04,6.91,25.64,8.74,37.22-.39,15.63-12.33,9.77-35.33-7.35-42.48-16.24-6.78-31.97,1.13-44.07,11.88l-23.54-25.26c-.97-1.08-1.3-2.51-.85-3.9.31-.95,16.08-9.82,17.35-9.71,15.43,13.19,34.9,27.24,55.44,15.44,22.41-12.88,15.9-43.46-9.63-47.15-16.21-2.35-28.03,6.82-42.18,11.69-3.62-6.2-10.48-29.17-6.18-34.53.54-.68,12.46-3.83,15.08-4.92s8.59-5.35,10.49-5.39c2.58-.05,10.64,4.68,14.32,5.61,6.89,1.74,15.92,3.56,23.03,4.97,70.04,13.93,122.13-43.1,150.71-99.66,2.81-5.56,17.82-32.02,3.05-31.01-3.32.23-21.22,11.51-26.34,13.72-2.4,1.04-18.4,7.04-19.23,6.26l10.81-46.23c-6.67-17.9-20.06,8.72-31.81,7.23,1.38-14.93,7.12-31.74,8.03-46.45.41-6.62-.36-13.58-8.72-11.78-8.66,6.03-17.34,12.23-26.39,17.66-3.71,2.23-33.46,19.07-34.91,17.58-.29-6.79.39-13.7-.02-20.49-.68-11.48-1.7-25.56-3.1-36.9-.8-6.42-6.53-13.28-12.36-7.58-1.99,1.94-7.88,15.19-10.7,19.29-2.21,3.22-18.68,22.94-21.81,20.67l-37.5-102.01c-.22-3.04-5.32-4.71-6.06-5.96-1.36-2.27,15.8-32.89,18.74-37.34,16.46-24.91,44.67-50.94,71.14-64.86,1.53-.81,8.71-4.83,9.67-3.82v.02Z"/>
  <path class="st0" d="M512.35,287.65c11,11.08,20.88,22.88,29.07,36.43,2.44,4.04,14.98,27.55,14.62,30.39-.06.44-6.61,2.14-6.55,5.52l-37.5,103.01c-11.51-7.82-19.51-18.01-26.79-29.69-2.97-4.76-4.95-15.34-12.47-13.14-6.82,2-5.17,14.96-5.73,20.32-1.63,15.48-3.88,30.86-3,46.5-1.78,2-41.04-21.47-45.31-24.18-5.53-3.51-19.66-17.83-24.17-7.8-3.57,7.93,9.46,53.02,7.48,54.98-2.93-.06-5.97-1.64-8.52-2.97-7.27-3.79-18.69-18.62-23.29-4.26l10.81,46.23c-16.03-3.43-30.37-12.25-44.75-19.83-13.66.53-5.32,14.65-1.96,22.04,27.05,59.45,82.32,123.32,155.09,108.66,7.49-1.51,18.74-3.92,25.84-6.16,3.13-.99,8.83-4.66,11.31-4.62,2.65.05,15.5,8.63,20.01,8.86.83,8.32.03,15.96,1.73,24.27.8,3.89,7.66,18.99,6.6,20.66-.61.95-17.63,8.75-20.24,9.96-8.68-7.27-18.29-15.96-30.15-16.82-17.15-1.25-33.77,12.68-26.69,30.68,5.6,14.23,21.22,16.32,34.59,13.19,5.25-1.23,17.05-9.04,20.58-7.4l26.91,29.18c3.21,1.95-5.73,13.13-6.5,13.29-13.87-10.91-32.42-18.87-49.27-9.34-17.94,10.14-17.41,34.57.18,44.59,12.56,7.15,27.38,4.19,39.03-3.38,1.79-1.17,9.51-8.65,10.66-7.82,5.27,13.58,8.15,29.88.34,43.03-27.01.47-53.48-5.78-79.23-13.13,3.83-59.06-17.86-115.38-61.08-155.42-32.13-29.77-79.55-51.29-101.19-90.81-2.1-3.84-8.93-21.26-10.82-22.17-2.78-1.34-9.45-.54-11.06,2.2-.85,1.45-1.86,13.91-1.99,16.76-1.19,26.42,3.3,58.27,10.33,83.75.84,3.06,2.81,6.6,3.61,9.41.53,1.86-.47,1.49-1.88,1.36-32.3-38.46-64.17-77.88-88.19-122.3-2.49-4.6-12.31-22.47-12.84-26.17-.31-2.18.3-1.24,1.51-1.47,134.87-25.95,231.79-131.17,245.49-268.54.24-2.43-.97-10.99,1.54-11.49,1.32-.26,21.33,10.13,24.17,11.8,14.72,8.67,27.77,19.88,39.65,31.85h.02Z"/>
  <path class="st0" d="M556.01,382.01c1.52.24,2.2,3.4,2.74,4.74,7.21,17.76,14.04,37.18,20.72,55.28,18.6,50.41,48.07,118.97,20.7,170.65-26.35,49.76-74.56,37.64-91.88-11.46-15.97-45.26.86-92.38,16.24-135.18,10.1-28.11,22.24-55.58,31.49-84.02h0ZM554.72,497.2c-7.56,1.7-6.24,15.59,3.54,13.62,8.35-1.69,6.59-15.9-3.54-13.62ZM561.76,547.24c-1.3-1.3-8.06-1.86-9.55-1.01-3.13,1.78-4.84,12.86,4.29,12.86,7.36,0,8.68-8.41,5.26-11.84h0ZM554.74,593.18c-6.19,1.28-6.52,11.99-1.03,13.61,12.35,3.65,12.83-16.06,1.03-13.61Z"/>
  <path class="st0" d="M345.86,231.14c8.03,34.6,53.27,37.23,59.15-.15l26.95,6.05c.82,10.08-1.37,19.94-1.95,29.96-65.89,7.02-123.01,45.13-157.42,101.08-23.5,38.21-36.03,86.18-66.54,119.43-2.13,2.32-13.18,13.98-15.48,13.46-2.94-5.06-4.67-11.96-6.28-17.76-1.27-4.57-5.22-17.74-4.08-21.51.47-1.57,17.9-17.07,20.83-20.18,38.47-40.92,61.32-93.86,41.75-149.81-.82-2.35-2.8-4.19-3.38-6.67-1.71-7.28,12.53-13.44,16.69-18.47l21.91-13.58c-4.45,22.65,18.7,48.25,40.5,31.99,15.67-11.68,11.3-34.87.53-48.5.1-1.69,24.74-6.69,26.84-5.35h-.02Z"/>
  <path class="st0" d="M826.01,249c1.23-1.26,20.68,10.44,23.3,12.19,2.41,1.6,15.09,10.86,15.54,12.53-2.39,10.84-6.19,20.43-6.9,31.73-3.31,52.88,23.04,93.49,60.03,128.06,2.44,2.28,16.25,12.76,16.79,13.69,2.76,4.76-6.58,33.9-7.79,40.79-1.32.96-10.73-7.35-12.51-8.95-35.89-32.38-51.12-82.7-78.26-121.76-37.11-53.41-96.06-87.25-161.34-91.86-.66-.96-3.87-20.94-3.84-23.02.01-.87.1-1.47.94-1.91l26.4-7.57c4.14,8.99,10.35,18.02,20.38,20.82,12.19,3.4,26.21-3.21,32.66-13.82,2-3.3,2.77-11.08,6.94-10.87,2.56.13,21.54,2.99,22.22,3.9,1.15,1.54-4.16,11.82-4.58,15.55-5.15,45.98,53.33,42.65,50.01.51h.01Z"/>
  <path class="st0" d="M427,283.01l-7.2,30.78c-18.28,2.34-34.34,7.65-49.71,17.8-58.73,38.79-68.39,115.59-119.07,158.93-12.59,10.76-26.17,13.03-42.01,16.48,41.16-39.75,52.96-98.8,85.19-144.3,30.31-42.8,80.57-73.25,132.81-79.68h-.01Z"/>
  <path class="st0" d="M893.38,479.63c4.1,4.67,8.8,8.97,13.61,12.88.18,1.64.15,1.65-1.44,1.46-6.47-.78-22.63-4.25-28.57-6.45-30.42-11.27-62.91-72.9-80.57-99.43-25.3-37.99-58.99-74.57-108.25-75.26-1.64-4.2-10.75-29.57-9.15-31.83,47.81,5.33,95.08,27.22,127.5,62.99,36.36,40.1,51.13,94.94,86.87,135.64h0Z"/>
  <path class="st0" d="M702.99,474c-7.4,38.47-10.03,80.7-25.53,116.96-13.55,31.71-41.83,62.56-79.46,48.02,31.7-33.95,30.55-82.2,21.05-124.93,16.2-4.66,31.36-11.93,46.63-18.87l37.32-21.17h0ZM655.83,562.82c3.04-1.86,3.83-12.91-4.32-12.92-9.47-.01-8.59,11.94-1.96,13,1.39.22,5.34.5,6.28-.08Z"/>
  <path class="st0" d="M493.91,514.09c-7.28,37.2-11,75.3,9.29,109.22,1.72,2.88,10.63,13.92,10.83,15.18.35,2.13-.44,1.23-1.43,1.61-31.04,12.02-58.56-13.85-72.12-39.07-15.68-29.18-27.51-92.91-30.5-126.51-.06-.62-.27-1.65.52-1.5,25.37,17.9,53.91,31.4,83.41,41.08h0ZM454.42,552.37c-4.56,9.22,6.27,15.35,11.05,8.61,6.64-9.36-7.84-15.12-11.05-8.61Z"/>
  <path class="st0" d="M813.99,594.01c-1.7,9.21-.04,20.38-2.22,29.27-1.32,5.41-8.54,16.17-11.96,21.04-37.08,52.76-116.49,79.76-118.76,154.99l-26.05,21.69c-1.91-43.83,13.43-90.07,42.48-123.01,28.73-32.58,71.15-51.88,100.03-83.97,5.32-5.91,9.42-12.65,14.2-18.75.64-.81-.03-1.84,2.28-1.26h0Z"/>
  <path class="st0" d="M320.35,615.65c22.79,24.43,53.58,41,78.66,62.84,35.57,30.96,57.59,71.57,61.98,119.02.35,3.82,1.79,23.87,0,25.49-2.03,0-3.9-1.84-5.47-3.02-2.8-2.1-18.32-14.87-19.45-16.62-.88-1.36-1.75-17.23-2.56-21.37-12.96-65.76-84.96-90.51-118.74-141.26-2.87-4.31-8.19-12.75-9.51-17.49-2.36-8.47-1.85-20.41-2.25-29.23l17.34,21.65h0Z"/>
  <path class="st0" d="M412.99,330c-10.27,31.13-29.05,62.13-50.48,87.01-17.37,20.17-51.16,49.57-75.18,60.81-1.45.68-2.53,1.53-4.33,1.16l20.8-31.69c25.97-46.59,50.77-105.85,109.19-117.3h0Z"/>
  <path class="st0" d="M753.65,358.35c22.16,21.51,36.7,50.47,53.33,76.17l26.01,36.48c-45.2-20.77-84.26-54.16-112.4-95.08-3.44-5-28.27-45.18-25.58-47.91,22.29,2.53,42.8,14.97,58.64,30.35h0Z"/>
  <path class="st0" d="M761.99,553c1.09,1.09-12.42,23.58-14.18,26.31-22.32,34.6-56.32,66.98-99.81,68.68l13.01-9.48c19.47-18.25,30.74-43.02,38.16-68.34,21.85-2.21,42.62-9.05,62.82-17.16h0ZM704.24,603.76c6.49,6.49,17.09-5.33,9.34-10.83s-14.3,5.87-9.34,10.83Z"/>
  <path class="st0" d="M464.99,647.01c.27,1.67-2.44,1.09-3.52,1.03-49.99-3.14-91.21-52.69-110.46-95.03,11.01,3.82,21.68,8.5,33,11.49,9.92,2.62,19.96,4.01,30.01,5.99,8.96,29.34,22.8,61.22,50.98,76.52h-.01ZM402.69,592.2c-4.52,1.39-4.79,11.66.84,12.78,13.49,2.68,11.92-16.69-.84-12.78Z"/>
  <path class="st0" d="M816.42,803.58c11.27,11.83,21.6,24.63,32.9,36.45.97.29.91,1.62.69,2.4-.19.65-9.84,8.75-10.5,8.58-4.97-5.17-9.59-11.4-14.49-16.53-.87-.91-7.01-7.64-8.02-6.47-.23,11.85,15.93,30.1-1.08,35.53l-29.92-12.52,23.99,27.5c-3.66.99-7.99,9.24-11.29,8.38l-36.7-40.39-2.09-4.86c4.31-1.7,8.26-9.65,12.54-9.7l34.54,13.06c2.02-2.25-10.13-31.46-8.85-36.27.89-3.32,9.91-7.98,10.91-11.68,1.81-1.26,6.18,5.3,7.36,6.54v-.02ZM816.5,826v1c.65-.33.65-.67,0-1Z"/>
  <path class="st0" d="M234,319v28.5c0,25.46-30.2,70.55-48.35,88.15-.8.77-8.99,8.13-9.64,7.34-.13-16.81-.48-33.6,2.27-50.22.53-3.23,2.34-13.96,3.67-16.08.63-1.01,16.15-11.6,19.07-14.18,9.77-8.65,19.82-20.41,26.15-31.85,1.82-3.29,2.84-7.61,4.58-10.39.65-1.04-.06-1.74,2.25-1.28h0ZM190.77,385.17c-10.23,1.31-9.57,17.58,3.52,14.61,8.69-1.98,6.6-15.9-3.52-14.61Z"/>
  <path class="st0" d="M316.98,664.01c.13.11.45,1.96,1.46,3.01,4.51,4.7,9.31,9.56,14.05,14.02,33.64,31.65,81.97,58.72,88.51,108.95-1.73.45-2-.72-3-1.49-13.29-10.18-29.44-26.24-42.01-37.99-23.13-21.64-57.17-50.64-60.9-84.12-.17-1.49.04-3.97,1.89-2.39h0Z"/>
  <path class="st0" d="M874.99,307c.5.43,4.07,9.54,5.59,11.92,8.12,12.68,18.63,23.36,30.5,32.5,4.21,3.24,13.83,7.78,16.13,11.87s4.22,13.81,5.3,18.7c3.43,15.45,5.16,31.14,4.48,47.01-.65.87-15.23-12.77-16.48-14.01-24.75-24.5-45.65-58.77-47.55-94.45-.18-3.35-.36-8.88.04-12.06.18-1.45.47-2.77,1.99-1.48h0ZM924.71,373.3c-4.63-3.74-12.74-1.2-13.49,5.43-1.19,10.49,18.37,11.45,15.53-1.97-.14-.64-1.53-3.05-2.03-3.46h-.01Z"/>
  <path class="st0" d="M615.99,851.01c1.01.94-5.61,6.03-6.77,6.96-12.75,10.23-26.52,20.47-39.91,29.85-2.22,1.55-11.05,8.12-12.81,8.12l-64.5-47.92c40.61,9.23,82.97,10.83,123.99,3h0Z"/>
  <path class="st0" d="M767.65,719.65c-17.45,17.71-36.08,35.33-54.64,51.86-1.72,1.53-14.81,13.63-16.01,12.48,10.08-45.68,52.16-70.19,84.01-99.48,7.53-6.93,13.98-15.19,21.31-22.17,1.02-.97,3.06-2.3,2.67.15-4.21,26.52-19.62,39.17-37.35,57.16h.01Z"/>
  <path class="st0" d="M453.03,957.96l9.96-58.97c25.25,1.95,60.46,8.21,51.73,42.24-7.62,29.71-39.67,21.06-61.69,16.73h0ZM495.59,944.63c11.4-15.7-.94-30.74-18.58-30.64l-5.98,33.97c7.93,1.64,18.91,4.44,24.56-3.33h0Z"/>
  <path class="st0" d="M360.37,896.38c-30.97,28.67-76.05-20.1-43.38-47.89,29.58-25.17,74.39,19.18,43.38,47.89ZM351.65,861.35c-15.16-16.78-40.04,7.66-26.18,23.68,14.55,16.83,39.43-9.02,26.18-23.68Z"/>
  <path class="st0" d="M267.62,784.37c-1.97-2.56-12.5-17.43-14.1-17.43-1.16,0-7.62,4.88-7.39,6.37.37,2.35,17.07,21.01,15.87,22.67-2.93.29-7.75,6.35-10.35,5.87-3-.56-13.09-18.69-16.63-21.38-.92-.42-11.34,5.72-7.01,8.82l16.96,22.28c.4,1.86-9.28,8.28-11.37,7.51l-26.35-38.43,47.27-34.66,28.44,37.51c0,.68-8.35,7.24-9.63,7.36-2.79.25-4.39-4.78-5.71-6.49h0Z"/>
  <polygon class="st0" points="575 909 575 922 544 922 543.99 932.01 572 933 572 945 544 945 544 956 576 956 576 969 528 969 528 909 575 909"/>
  <path class="st0" d="M901,775.01c-1.9,2.32-7.46,12.79-9.19,13.81-2.53,1.5-8.93-3.09-11.19-2.64-1.83.36-12.96,17.56-14.63,20.38-.57,3.27,5.27,7.8,4.49,10.45-.5,1.7-8.3,12.02-9.97,12-2.5-7.52-32.97-53.18-32.35-56.37.16-.83,8.9-12.12,11.13-12.42l61.71,14.79h0ZM867,782.01l-21-5c1.97,2.32,9.96,17.61,11.52,17.99,1.98.49,10.41-11.99,9.49-12.99h-.01Z"/>
  <path class="st0" d="M425.65,888.36c7.69,8.35-1.44,8.41-6.21,14.61-1.64.37-3.1-3.13-4.41-4.5-2.63-2.75-15.42-15.83-17.86-7.76-1.87,6.19,11.46,13.51,14.76,18.07,11.95,16.53-2.7,32.61-21.16,27.94-7.68-1.95-23.87-13.07-26.38-20.7-1.3-3.96,6.68-8.49,10-9.95,2,5.02,19.41,23.66,24.13,15.93,3.94-6.46-10.99-14.52-14.54-18.77-5.18-6.21-6.3-12.69-2.19-19.95,9.44-16.71,34.04-5.6,43.86,5.07h0Z"/>
  <path class="st0" d="M692.64,881.41l38.91,39,4.44,6.07c-.16.72-12.32,5.46-13.61,5.51-4.28.16-6.52-6.76-9.83-6.94-1.19-.06-21.42,7.92-22.09,8.91-1.71,2.53,1.03,8.74-1.45,11.55-.81.92-13.44,6.07-14.01,5.49l1.13-64.36c.25-.73,12.2-6.13,13.57-6.38,1.12-.2,2.18.37,2.94,1.16h0ZM689,899c-.76.99.57,18.89,0,22l15.01-5.51c.09-2.31-9.24-11.76-11.48-14.05-.56-.58-2.63-3.63-3.54-2.44h0Z"/>
  <path class="st0" d="M292,864c-22.28.83-40.76-18.55-34.3-40.8,9.18-31.61,54.44-28.57,61.65,3.94,2.9,13.09-4.12,6.93-13.35,9.85,1.4-14.8-12.17-27.56-25.92-17.41-15.55,11.48-6.21,31.5,11.91,30.41v14h.01Z"/>
  <path class="st0" d="M732.98,859c3.18,5.7,19.45,36.68,23.02,38.57,2.99,1.59,17.97-12.38,22.4-11.65.67.11,6.88,10.54,5.11,12.08l-31.57,19.49-2.96.06-29.84-49.28c-.18-.72-.43-1.41-.02-2.12s13.22-7.61,13.85-7.15h.01Z"/>
  <path class="st0" d="M602,905.99l5.99,45.01,26.01-3.01c-1.18,3.11,2.5,11.94.06,13.57l-40.06,5.44-8.04-57.48c.66-3.96,12.45-3.17,16.05-3.54h-.01Z"/>
  <path class="st0" d="M633.99,451.01l1.81,41.3c-.86,2.85-16.48,7.63-20.18,8.62-1.73-.52-8.3-21.8-8.52-25.25,5.4-4.27,11.15-8.22,15.96-13.13,1.53-1.56,9.59-13.05,10.93-11.55h0Z"/>
  <path class="st0" d="M482.41,453.58c3.02,2.85,4.89,6.33,7.55,8.96,4.54,4.5,11.11,8.99,16.08,13.17-.84,8.71-6.22,16.43-7.05,25.3-.93.83-20.05-6.07-20.97-7.79-4.58-8.55,2.66-32,.98-42.21,2.24-.5,2.27,1.5,3.4,2.57h.01Z"/>
  <path class="st0" d="M516.76,775.27c7.02-1.04,16.04,1.7,21.94,5.54,9.22,6,4.63,9.84-2.76,14.63-4.35,2.82-11.17,5.68-16.39,5.59-18.87-.31-20.33-23.15-2.79-25.76Z"/>
  <path class="st0" d="M584.37,713.62c-.72-.47-6.93-5.39-7.17-5.78-.35-.6-.42-2.26-.1-2.73.75-1.11,17.24-8.49,19.64-8.86,9.24-1.45,24.51.39,22.05,13.02-.92,4.74-6.96,9.58-11.51,10.52-7.84,1.61-16.46-1.92-22.91-6.15v-.02Z"/>
  <path class="st0" d="M582.31,765.7c-4.8-5.79,11.66-13.23,16.19-13.7,23.41-2.43,25.27,27.3,2.25,23.76-4.45-.68-15.64-6.69-18.43-10.06h-.01Z"/>
  <path class="st0" d="M302.71,241.15c3.09-.14,9.91,13.83,10.29,17.34,2.73,25.2-23.04,18.98-19.74-3.73.7-4.85,3.65-13.34,9.45-13.61h0Z"/>
  <path class="st0" d="M797.66,237.1c1.23-.36,9.19,2.43,10.32,3.42,6.35,5.6,3.3,25.18-6.56,26.46-16.07,2.07-10.19-27.98-3.75-29.88h-.01Z"/>
  <path class="st0" d="M404.78,525.22c1.12,1.09,4.5,26.81,5.22,30.78-.64.64-12.39-1.49-13.49-3.01-1.65-11-7.31-22.01-7.02-32.98,2.34,2.98,13.92,3.88,15.28,5.22h0Z"/>
  <path class="st0" d="M703,556l5.08-30.92,16.43-5.05-8,32.99c-.88,1.15-12.84,3.65-13.51,2.99h0Z"/>
  <path class="st0" d="M496.74,710.24c7.68-1.96,16.94,1.6,22.29,7.22,3.07,3.22,2.76,4.14-1.03,6.04-7.54,3.79-20.62,7.52-26.84-.16-4.32-5.33.12-11.71,5.58-13.1h0Z"/>
  <path class="st0" d="M220.99,301c-2.26,20.07-14.97,37.33-29.98,49.99,5.51-16.78,15.83-33.88,26.77-47.72.95-1.2,1.14-2.72,3.22-2.27h-.01Z"/>
  <path class="st0" d="M390,229c-2.38,19.65-24.43,17.69-29,0h29Z"/>
  <path class="st0" d="M887.98,294.01c.13.11.26,1.7.99,2.47,3.82,4.01,7.07,8.43,10.99,12.28l15.03,25.24c-1.36,1.32-12.06-9.72-12.94-10.79-6.09-7.33-12.16-15.94-14.26-24.49-.13-.52-3.62-7.96.19-4.71Z"/>
  <path class="st0" d="M735.66,235.65c-7.28,6.29-19.27,4.25-21.66-5.65l24.41-1.96c3.46.88-1.28,6.34-2.75,7.61Z"/>
</svg>